<?xml version="1.0" encoding="UTF-8" standalone="no"?>
<!-- Created with Inkscape (http://www.inkscape.org/) -->

<svg
   xmlns:dc="http://purl.org/dc/elements/1.1/"
   xmlns:cc="http://creativecommons.org/ns#"
   xmlns:rdf="http://www.w3.org/1999/02/22-rdf-syntax-ns#"
   xmlns:svg="http://www.w3.org/2000/svg"
   xmlns="http://www.w3.org/2000/svg"
   xmlns:sodipodi="http://sodipodi.sourceforge.net/DTD/sodipodi-0.dtd"
   xmlns:inkscape="http://www.inkscape.org/namespaces/inkscape"
   width="130"
   height="130"
   viewBox="0 0 130 130"
   id="svg3371"
   version="1.1"
   inkscape:version="0.91 r13725"
   sodipodi:docname="white.svg">
  <defs
     id="defs3373" />
  <sodipodi:namedview
     id="base"
     pagecolor="#ffffff"
     bordercolor="#666666"
     borderopacity="1.0"
     inkscape:pageopacity="0.0"
     inkscape:pageshadow="2"
     inkscape:zoom="2.8"
     inkscape:cx="5.732967"
     inkscape:cy="22.806652"
     inkscape:document-units="px"
     inkscape:current-layer="layer1"
     showgrid="false"
     units="px"
     width="13mm"
     inkscape:window-width="1094"
     inkscape:window-height="837"
     inkscape:window-x="738"
     inkscape:window-y="45"
     inkscape:window-maximized="0" />
  <metadata
     id="metadata3376">
    <rdf:RDF>
      <cc:Work
         rdf:about="">
        <dc:format>image/svg+xml</dc:format>
        <dc:type
           rdf:resource="http://purl.org/dc/dcmitype/StillImage" />
        <dc:title></dc:title>
      </cc:Work>
    </rdf:RDF>
  </metadata>
  <g
     inkscape:label="Layer 1"
     inkscape:groupmode="layer"
     id="layer1"
     transform="translate(0,-922.3622)">
    <g
       id="g3"
       transform="matrix(7.5086166,0,0,7.8446755,5.0016299,924.67932)">
      <g
         id="g5">
        <path
           style="fill:#090509"
           d="M 15.933,6.112 C 15.816,5.75 15.502,5.486 15.125,5.431 L 10.814,4.805 8.887,0.9 C 8.718,0.558 8.371,0.342 7.99,0.342 7.609,0.342 7.262,0.558 7.093,0.9 L 5.166,4.805 0.856,5.431 C 0.479,5.486 0.166,5.75 0.049,6.112 -0.069,6.474 0.029,6.871 0.302,7.137 l 3.119,3.04 -0.736,4.293 c -0.064,0.375 0.09,0.754 0.398,0.978 0.173,0.127 0.379,0.191 0.587,0.191 0.159,0 0.319,-0.038 0.465,-0.115 l 3.855,-2.027 3.855,2.026 c 0.145,0.078 0.306,0.116 0.465,0.116 0.207,0 0.414,-0.064 0.589,-0.191 0.307,-0.224 0.461,-0.603 0.397,-0.978 L 12.56,10.177 15.679,7.137 C 15.951,6.872 16.05,6.474 15.933,6.112 Z M 11.485,9.828 12.31,14.639 7.99,12.368 3.67,14.639 4.495,9.828 1,6.421 5.83,5.719 7.99,1.342 l 2.161,4.377 4.83,0.702 -3.496,3.407 z"
           id="path7"
           inkscape:connector-curvature="0" />
      </g>
    </g>
    <g
       id="g9"
       transform="matrix(7.5086166,0,0,7.8446755,0.20162989,929.67932)" />
    <g
       id="g11"
       transform="matrix(7.5086166,0,0,7.8446755,0.20162989,929.67932)" />
    <g
       id="g13"
       transform="matrix(7.5086166,0,0,7.8446755,0.20162989,929.67932)" />
    <g
       id="g15"
       transform="matrix(7.5086166,0,0,7.8446755,0.20162989,929.67932)" />
    <g
       id="g17"
       transform="matrix(7.5086166,0,0,7.8446755,0.20162989,929.67932)" />
    <g
       id="g19"
       transform="matrix(7.5086166,0,0,7.8446755,0.20162989,929.67932)" />
    <g
       id="g21"
       transform="matrix(7.5086166,0,0,7.8446755,0.20162989,929.67932)" />
    <g
       id="g23"
       transform="matrix(7.5086166,0,0,7.8446755,0.20162989,929.67932)" />
    <g
       id="g25"
       transform="matrix(7.5086166,0,0,7.8446755,0.20162989,929.67932)" />
    <g
       id="g27"
       transform="matrix(7.5086166,0,0,7.8446755,0.20162989,929.67932)" />
    <g
       id="g29"
       transform="matrix(7.5086166,0,0,7.8446755,0.20162989,929.67932)" />
    <g
       id="g31"
       transform="matrix(7.5086166,0,0,7.8446755,0.20162989,929.67932)" />
    <g
       id="g33"
       transform="matrix(7.5086166,0,0,7.8446755,0.20162989,929.67932)" />
    <g
       id="g35"
       transform="matrix(7.5086166,0,0,7.8446755,0.20162989,929.67932)" />
    <g
       id="g37"
       transform="matrix(7.5086166,0,0,7.8446755,0.20162989,929.67932)" />
  </g>
</svg>
